<?xml version="1.0" standalone="no"?>
<!DOCTYPE svg PUBLIC "-//W3C//DTD SVG 20010904//EN"
 "http://www.w3.org/TR/2001/REC-SVG-20010904/DTD/svg10.dtd">
<svg version="1.0" xmlns="http://www.w3.org/2000/svg"
 width="512.000000pt" height="512.000000pt" viewBox="0 0 512.000000 512.000000"
 preserveAspectRatio="xMidYMid meet">

<g transform="translate(0.000000,512.000000) scale(0.100000,-0.100000)"
fill="#000000" stroke="none">
<path d="M2332 5109 c-491 -44 -974 -238 -1372 -553 -104 -82 -332 -313 -412
-417 -221 -285 -386 -622 -467 -949 -109 -442 -106 -862 10 -1298 84 -317 256
-657 473 -932 86 -109 326 -344 436 -426 346 -259 694 -415 1095 -489 724
-134 1455 46 2045 504 104 80 335 309 416 411 266 338 442 724 520 1140 117
631 -16 1307 -363 1839 -143 220 -370 473 -558 621 -198 157 -485 318 -720
405 -335 123 -739 176 -1103 144z m583 -134 c429 -67 823 -238 1157 -501 93
-73 328 -308 400 -399 269 -343 441 -743 505 -1174 24 -163 24 -523 0 -681
-23 -149 -59 -298 -103 -432 l-36 -108 -239 0 c-226 0 -240 -1 -259 -20 -19
-19 -20 -33 -20 -255 l0 -235 -50 0 -49 0 -3 147 c-3 146 -3 148 -28 160 -35
18 -505 18 -540 0 -24 -12 -25 -18 -28 -105 -3 -90 -3 -92 -27 -92 l-25 0 0
144 c0 180 3 176 -147 176 l-103 0 0 45 c0 40 3 45 22 45 70 0 78 100 8 115
l-30 7 0 243 0 244 23 7 c33 10 57 34 57 59 0 37 -30 54 -100 57 l-65 3 -3
124 c-3 121 -2 124 23 147 53 49 18 104 -67 104 l-53 0 -258 768 -257 767 0
235 c0 197 -3 239 -16 258 -18 26 -60 29 -86 5 -16 -15 -18 -36 -18 -257 l0
-241 -257 -767 -258 -768 -52 0 c-86 0 -121 -55 -68 -104 25 -23 26 -26 23
-147 l-3 -124 -65 -3 c-70 -3 -100 -20 -100 -57 0 -25 24 -49 58 -59 l22 -7 0
-244 0 -243 -30 -7 c-68 -15 -63 -115 7 -115 l23 0 0 -220 0 -220 -145 0 -145
0 0 144 c0 121 -3 146 -17 157 -11 10 -55 15 -149 17 -131 3 -134 3 -159 -22
-22 -22 -25 -33 -25 -96 l0 -70 -205 0 -205 0 0 94 c0 131 9 126 -241 126
-179 0 -197 2 -202 18 -3 9 -24 69 -47 132 -49 136 -92 306 -116 462 -26 160
-26 538 -1 696 70 438 238 827 503 1164 80 102 323 342 419 414 402 303 767
446 1295 508 77 9 460 -4 555 -19z m195 -2426 l0 -130 -37 3 -38 3 -3 75 c-2
62 -6 78 -23 93 -55 45 -99 -2 -99 -104 l0 -69 -75 0 -75 0 0 65 c0 35 -5 76
-12 90 -15 33 -51 42 -83 21 -22 -14 -24 -24 -27 -93 l-3 -78 -75 0 -75 0 -3
78 c-3 69 -5 79 -27 93 -32 21 -68 12 -83 -21 -7 -14 -12 -55 -12 -90 l0 -65
-75 0 -75 0 0 69 c0 102 -44 149 -99 104 -17 -15 -21 -31 -23 -93 l-3 -75 -37
-3 -38 -3 0 130 0 131 550 0 550 0 0 -131z m90 -309 l0 -60 -54 0 c-61 0 -107
-25 -143 -79 -21 -31 -23 -45 -23 -162 l0 -129 -25 0 -25 0 0 117 c0 98 -3
124 -21 160 -29 59 -70 86 -139 91 -64 5 -99 -9 -141 -55 -39 -42 -49 -84 -49
-204 0 -102 -1 -109 -20 -109 -19 0 -20 7 -20 109 0 120 -10 162 -49 204 -42
46 -77 60 -141 55 -69 -5 -110 -32 -139 -91 -18 -36 -21 -62 -21 -160 l0 -117
-25 0 -25 0 0 129 c0 117 -2 131 -23 162 -36 54 -82 79 -143 79 l-54 0 0 60 0
60 640 0 640 0 0 -60z m0 -885 l0 -335 -195 0 c-249 0 -235 10 -235 -169 l0
-130 -196 -3 c-230 -4 -224 -1 -224 -110 l0 -68 -80 0 -80 0 0 208 c0 268 9
252 -151 252 l-119 0 0 345 0 345 640 0 640 0 0 -335z m-2130 -525 c0 -146
-11 -140 248 -140 258 0 252 -3 252 111 l0 79 245 0 245 0 0 -194 c0 -189 7
-241 33 -258 7 -4 87 -8 179 -8 197 0 198 0 198 107 l0 62 195 3 c171 3 197 5
212 21 15 15 19 39 21 152 l4 135 269 0 269 0 0 -227 c0 -163 4 -235 13 -253
12 -23 19 -25 107 -30 l95 -5 -75 -37 c-441 -212 -991 -277 -1500 -177 -453
90 -879 315 -1218 645 l-117 113 163 1 162 0 0 -100z m3120 -81 c-62 -57 -233
-189 -243 -189 -4 0 -7 54 -7 120 l0 120 153 0 152 -1 -55 -50z"/>
<path d="M2040 1443 c-32 -11 -40 -37 -40 -130 0 -80 3 -96 20 -113 11 -11 29
-20 40 -20 11 0 29 9 40 20 17 17 20 33 20 114 0 90 -1 96 -26 115 -28 22 -30
23 -54 14z"/>
<path d="M2535 1438 c-32 -18 -35 -28 -35 -125 0 -80 3 -96 20 -113 11 -11 29
-20 40 -20 11 0 29 9 40 20 17 17 20 33 20 113 0 98 -3 108 -37 126 -26 13
-23 13 -48 -1z"/>
<path d="M3027 1429 c-26 -20 -27 -25 -27 -115 0 -81 3 -97 20 -114 11 -11 29
-20 40 -20 11 0 29 9 40 20 17 17 20 33 20 113 0 59 -5 99 -12 109 -22 27 -53
30 -81 7z"/>
</g>
</svg>
