<?xml version="1.0" encoding="iso-8859-1"?>
<!-- Uploaded to: SVG Repo, www.svgrepo.com, Generator: SVG Repo Mixer Tools -->
<svg height="800px" width="800px" version="1.1" id="Layer_1" xmlns="http://www.w3.org/2000/svg" xmlns:xlink="http://www.w3.org/1999/xlink" 
	 viewBox="0 0 512.005 512.005" xml:space="preserve">
<circle style="fill:#D7F3FF;" cx="256.002" cy="256.002" r="256.002"/>
<g>
	<path style="fill:#666666;" d="M493.127,352.386l0.074,0.037c-11.662,28.669-28.374,54.752-49.038,77.141l-39.636,13.208
		l-13.208,29.476l-34.339,19.064l-59.513-16.182l-13.546-55.417l43.915-59.112h25.861v32.832h16.428V372.09h50.072v32.844h22.167
		v-52.548H493.127z"/>
	<path style="fill:#666666;" d="M184.158,396.72l13.756,10.874l22.376,27.302l-22.167,34.482l-66.913-6.976l-36.945-30.381
		l-37.751-15.597c-13.719-17.007-25.283-35.812-34.309-56.008h42.511v22.352h54.186v-18.891h23.805v32.844L184.158,396.72
		L184.158,396.72z"/>
</g>
<polygon style="fill:#F9D2AF;" points="184.158,396.72 184.158,339.246 207.15,339.246 224.391,339.246 247.383,339.246 
	264.624,339.246 287.604,339.246 304.845,339.246 327.837,339.246 327.837,360.6 327.837,486.619 184.158,488.257 "/>
<g>
	<path style="fill:#999999;" d="M391.32,429.564h52.843c-15.406,16.699-33.004,31.341-52.351,43.472l-0.493-0.788V429.564z"/>
	<path style="fill:#999999;" d="M352.885,472.247h38.435l0.493,0.788C352.454,497.727,305.891,512,256.004,512
		c-80.65,0-152.582-37.29-199.489-95.576h53.348v24.63h38.595V421.35h35.701h27.512v47.622h28.731v-18.066h43.521v-31.194h43.915
		h25.049L352.885,472.247L352.885,472.247z"/>
</g>
<g>
	<path style="fill:#666666;" d="M327.837,312.154v27.093h-22.992v-27.093c0-6.342,5.148-11.49,11.502-11.49
		C322.689,300.664,327.837,305.811,327.837,312.154z"/>
	<path style="fill:#666666;" d="M287.604,312.154v27.093h-22.98v-27.093c0-6.342,5.148-11.49,11.49-11.49
		S287.604,305.811,287.604,312.154z"/>
	<path style="fill:#666666;" d="M247.383,312.154v27.093h-22.992v-27.093c0-6.342,5.148-11.49,11.49-11.49
		C242.236,300.664,247.383,305.811,247.383,312.154z"/>
	<path style="fill:#666666;" d="M207.15,312.154v27.093h-22.992v-27.093c0-6.342,5.148-11.49,11.502-11.49
		C202.003,300.664,207.15,305.811,207.15,312.154z"/>
</g>
<path style="fill:#DBAE86;" d="M327.837,276.034v36.12c0-6.342-5.148-11.49-11.49-11.49c-6.354,0-11.502,5.148-11.502,11.49v27.093
	h-17.241v-27.093c0-6.342-5.148-11.49-11.49-11.49s-11.49,5.148-11.49,11.49v27.093h-17.241v-27.093
	c0-6.342-5.148-11.49-11.502-11.49c-6.342,0-11.49,5.148-11.49,11.49v27.093H207.15v-27.093c0-6.342-5.148-11.49-11.49-11.49
	c-6.355,0-11.502,5.148-11.502,11.49v-36.12h9.039h20.517h28.189h28.189h28.189h20.529L327.837,276.034L327.837,276.034z"/>
<polygon style="fill:#F9D2AF;" points="213.714,276.034 193.198,276.034 193.198,237.501 201.399,237.501 310.596,237.501 
	318.81,237.501 318.81,276.034 298.281,276.034 270.092,276.034 241.903,276.034 "/>
<polygon style="fill:#596F7C;" points="256.004,74.894 310.596,237.501 201.399,237.501 "/>
<path style="fill:#BC9575;" d="M335.941,345.404H176.056c-3.4,0-6.157-2.757-6.157-6.157c0-3.4,2.757-6.157,6.157-6.157h159.885
	c3.4,0,6.157,2.757,6.157,6.157C342.098,342.647,339.341,345.404,335.941,345.404z"/>
<path style="fill:#4B5D66;" d="M323.626,243.658H188.371c-3.4,0-6.157-2.757-6.157-6.157c0-3.4,2.757-6.157,6.157-6.157h135.255
	c3.4,0,6.157,2.757,6.157,6.157C329.784,240.901,327.026,243.658,323.626,243.658z"/>
<path style="fill:#596F7C;" d="M256.004,130.102c-2.38,0-4.31-1.93-4.31-4.31V27.273c0-2.38,1.93-4.31,4.31-4.31
	s4.31,1.93,4.31,4.31v98.519C260.314,128.174,258.384,130.102,256.004,130.102z"/>
<g>
	<path style="fill:#4D4D4D;" d="M262.161,188.598h-12.315v-18.472c0-3.4,2.757-6.157,6.157-6.157l0,0c3.4,0,6.157,2.757,6.157,6.157
		V188.598z"/>
	<path style="fill:#4D4D4D;" d="M213.716,282.191c-3.4,0-6.157-2.757-6.157-6.157v-18.879c0-3.4,2.757-6.157,6.157-6.157
		s6.157,2.757,6.157,6.157v18.879C219.873,279.435,217.116,282.191,213.716,282.191z"/>
	<path style="fill:#4D4D4D;" d="M241.903,282.191c-3.4,0-6.157-2.757-6.157-6.157v-18.879c0-3.4,2.757-6.157,6.157-6.157
		s6.157,2.757,6.157,6.157v18.879C248.061,279.435,245.303,282.191,241.903,282.191z"/>
	<path style="fill:#4D4D4D;" d="M270.092,282.191c-3.4,0-6.157-2.757-6.157-6.157v-18.879c0-3.4,2.757-6.157,6.157-6.157
		s6.157,2.757,6.157,6.157v18.879C276.249,279.435,273.493,282.191,270.092,282.191z"/>
	<path style="fill:#4D4D4D;" d="M298.281,282.191c-3.4,0-6.157-2.757-6.157-6.157v-18.879c0-3.4,2.757-6.157,6.157-6.157
		s6.157,2.757,6.157,6.157v18.879C304.438,279.435,301.682,282.191,298.281,282.191z"/>
</g>
<g>
	<path style="fill:#666666;" d="M210.845,397.126H198.53v-20.935c0-3.4,2.757-6.157,6.157-6.157l0,0c3.4,0,6.157,2.757,6.157,6.157
		V397.126z"/>
	<path style="fill:#666666;" d="M262.161,397.126h-12.315v-20.935c0-3.4,2.757-6.157,6.157-6.157l0,0c3.4,0,6.157,2.757,6.157,6.157
		V397.126z"/>
	<path style="fill:#666666;" d="M313.466,397.126h-12.315v-20.935c0-3.4,2.757-6.157,6.157-6.157l0,0c3.4,0,6.157,2.757,6.157,6.157
		V397.126z"/>
</g>
<path style="fill:#BC9575;" d="M335.941,282.191H176.056c-3.4,0-6.157-2.757-6.157-6.157s2.757-6.157,6.157-6.157h159.885
	c3.4,0,6.157,2.757,6.157,6.157S339.341,282.191,335.941,282.191z"/>
</svg>